<svg id="visual" viewBox="0 0 900 450" width="900" height="450" xmlns="http://www.w3.org/2000/svg" xmlns:xlink="http://www.w3.org/1999/xlink" version="1.1"><rect x="0" y="0" width="900" height="450" fill="#2A6594"></rect><path d="M0 140L21.5 146.2C43 152.3 86 164.7 128.8 162.2C171.7 159.7 214.3 142.3 257.2 137.2C300 132 343 139 385.8 147C428.7 155 471.3 164 514.2 169.7C557 175.3 600 177.7 642.8 170.7C685.7 163.7 728.3 147.3 771.2 139C814 130.7 857 130.3 878.5 130.2L900 130L900 0L878.5 0C857 0 814 0 771.2 0C728.3 0 685.7 0 642.8 0C600 0 557 0 514.2 0C471.3 0 428.7 0 385.8 0C343 0 300 0 257.2 0C214.3 0 171.7 0 128.8 0C86 0 43 0 21.5 0L0 0Z" fill="#2a6594"></path><path d="M0 90L21.5 95C43 100 86 110 128.8 118.7C171.7 127.3 214.3 134.7 257.2 130C300 125.3 343 108.7 385.8 108.8C428.7 109 471.3 126 514.2 128.5C557 131 600 119 642.8 112.3C685.7 105.7 728.3 104.3 771.2 105C814 105.7 857 108.3 878.5 109.7L900 111L900 0L878.5 0C857 0 814 0 771.2 0C728.3 0 685.7 0 642.8 0C600 0 557 0 514.2 0C471.3 0 428.7 0 385.8 0C343 0 300 0 257.2 0C214.3 0 171.7 0 128.8 0C86 0 43 0 21.5 0L0 0Z" fill="#0e4e88"></path><path d="M0 96L21.5 95.8C43 95.7 86 95.3 128.8 91.5C171.7 87.7 214.3 80.3 257.2 81.8C300 83.3 343 93.7 385.8 97.3C428.7 101 471.3 98 514.2 94.8C557 91.7 600 88.3 642.8 84.3C685.7 80.3 728.3 75.7 771.2 72.8C814 70 857 69 878.5 68.5L900 68L900 0L878.5 0C857 0 814 0 771.2 0C728.3 0 685.7 0 642.8 0C600 0 557 0 514.2 0C471.3 0 428.7 0 385.8 0C343 0 300 0 257.2 0C214.3 0 171.7 0 128.8 0C86 0 43 0 21.5 0L0 0Z" fill="#003679"></path><path d="M0 79L21.5 74.8C43 70.7 86 62.3 128.8 63.5C171.7 64.7 214.3 75.3 257.2 80.7C300 86 343 86 385.8 82.7C428.7 79.3 471.3 72.7 514.2 68.5C557 64.3 600 62.7 642.8 60.2C685.7 57.7 728.3 54.3 771.2 51.3C814 48.3 857 45.7 878.5 44.3L900 43L900 0L878.5 0C857 0 814 0 771.2 0C728.3 0 685.7 0 642.8 0C600 0 557 0 514.2 0C471.3 0 428.7 0 385.8 0C343 0 300 0 257.2 0C214.3 0 171.7 0 128.8 0C86 0 43 0 21.5 0L0 0Z" fill="#001e67"></path><path d="M0 38L21.5 35.3C43 32.7 86 27.3 128.8 28.8C171.7 30.3 214.3 38.7 257.2 41.7C300 44.7 343 42.3 385.8 38C428.7 33.7 471.3 27.3 514.2 26.8C557 26.3 600 31.7 642.8 31.7C685.7 31.7 728.3 26.3 771.2 23.2C814 20 857 19 878.5 18.5L900 18L900 0L878.5 0C857 0 814 0 771.2 0C728.3 0 685.7 0 642.8 0C600 0 557 0 514.2 0C471.3 0 428.7 0 385.8 0C343 0 300 0 257.2 0C214.3 0 171.7 0 128.8 0C86 0 43 0 21.5 0L0 0Z" fill="#000052"></path></svg>